# xmcd CD database file
#
# Track frame offsets:
#	150
#	18156
#	46236
#	56866
#	85656
#	101400
#	125790
#	143289
#	157605
#	182733
#	194244
#
# Disc length: 2897 seconds
#
# Revision: 1
# Processed by: cddbd v1.5.2PL0 Copyright (c) Steve Scherf et al.
# Submitted via: CDex 1.51
#
DISCID=890b4f0b
DTITLE=Sinne Eeg - Remembering You
DYEAR=2008
DGENRE=Jazz
TTITLE0=Talking to Myself
TTITLE1=Remembering You
TTITLE2=Just You, Just Me
TTITLE3=Spring Can Really Hang You Up the Most
TTITLE4=Up From the Skies
TTITLE5=Moonbeam
TTITLE6=Unpredicteable Love
TTITLE7=You and I
TTITLE8=In a Sentimental Mood
TTITLE9=It's Alright With Me
TTITLE10=My One and Only Love
EXTD=YEAR: 2008
EXTT0=
EXTT1=
EXTT2=
EXTT3=
EXTT4=
EXTT5=
EXTT6=
EXTT7=
EXTT8=
EXTT9=
EXTT10=
PLAYORDER=
